Coordinates
version=1
nRows=14
nColumns=40
inDegrees=yes

Units are S.I. units (second, meters, Newtons, ...)
If the header above contains a line with 'inDegrees', this indicates whether rotational values are in degrees (yes) or radians (no).

endheader
time	pelvis_tilt	pelvis_list	pelvis_rotation	pelvis_tx	pelvis_ty	pelvis_tz	hip_flexion_r	hip_adduction_r	hip_rotation_r	knee_angle_r	knee_angle_r_beta	ankle_angle_r	subtalar_angle_r	mtp_angle_r	hip_flexion_l	hip_adduction_l	hip_rotation_l	knee_angle_l	knee_angle_l_beta	ankle_angle_l	subtalar_angle_l	mtp_angle_l	lumbar_extension	lumbar_bending	lumbar_rotation	arm_flex_r	arm_add_r	arm_rot_r	elbow_flex_r	pro_sup_r	wrist_flex_r	wrist_dev_r	arm_flex_l	arm_add_l	arm_rot_l	elbow_flex_l	pro_sup_l	wrist_flex_l	wrist_dev_l
      4.06500000	      2.84521142	     -5.56235751	      1.99701977	     -0.33359462	      0.87980275	     -1.06187072	     42.37654723	      3.43304652	     -3.44881951	      1.00727058	      0.01758019	    -10.53896209	      0.00000000	      0.00000000	     38.13203597	     -2.48342997	     -0.08520449	     76.55667034	      1.33616596	     25.23775579	      0.00000000	      0.00000000	    -18.41357872	      1.93688313	      5.53637448	     89.95399316	     -1.96870246	      8.43011223	     44.51266129	     82.29955116	      0.00000000	      0.00000000	     89.96649489	      2.58089566	     18.12963385	     49.93407951	     76.67947295	      0.00000000	      0.00000000
      4.07000000	      2.87699407	     -5.58708904	      1.92846023	     -0.33339547	      0.88141828	     -1.06185810	     42.25063173	      3.49359391	     -3.47639963	      1.01712139	      0.01775212	    -10.59369616	      0.00000000	      0.00000000	     37.89267711	     -2.61401614	     -0.18500038	     76.19568654	      1.32986561	     25.07896596	      0.00000000	      0.00000000	    -18.38960581	      1.94824367	      5.57454211	     89.95388347	     -1.96947230	      8.51976610	     44.41306402	     82.31055472	      0.00000000	      0.00000000	     89.96638789	      2.54157528	     18.16740309	     49.87985708	     76.64441562	      0.00000000	      0.00000000
      4.07500000	      3.00149991	     -5.54585446	      1.88733609	     -0.33310728	      0.88333936	     -1.06192348	     42.01179722	      3.49387302	     -3.54834126	      1.03189671	      0.01801000	    -10.65505500	      0.00000000	      0.00000000	     37.53414722	     -2.69251143	     -0.36896511	     75.82980834	      1.32347983	     24.85575446	      0.00000000	      0.00000000	    -18.48632996	      1.89797921	      5.56612081	     89.95378963	     -1.96810556	      8.60294351	     44.37169601	     82.32829643	      0.00000000	      0.00000000	     89.96639260	      2.49942243	     18.23026685	     49.81366054	     76.59008258	      0.00000000	      0.00000000
      4.08000000	      3.11478988	     -5.54100290	      1.80205776	     -0.33287695	      0.88502511	     -1.06194703	     41.79289950	      3.54684280	     -3.60648739	      1.01900527	      0.01778500	    -10.72588849	      0.00000000	      0.00000000	     37.23301134	     -2.82171847	     -0.55194482	     75.54217325	      1.31845965	     24.62977620	      0.00000000	      0.00000000	    -18.53065310	      1.84632809	      5.59950762	     89.95376616	     -1.99786236	      8.69738537	     44.28803891	     82.34817543	      0.00000000	      0.00000000	     89.96632746	      2.48096441	     18.29819627	     49.78247258	     76.51577195	      0.00000000	      0.00000000
      4.08500000	      3.08305307	     -5.58252590	      1.80751313	     -0.33275534	      0.88651609	     -1.06198693	     41.72150027	      3.56164031	     -3.58988066	      1.01827627	      0.01777227	    -10.72379964	      0.00000000	      0.00000000	     37.12392779	     -2.92088404	     -0.61105954	     75.23909738	      1.31316998	     24.52223494	      0.00000000	      0.00000000	    -18.45575697	      1.87172198	      5.57335226	     89.95358864	     -2.04466584	      8.72201410	     44.27216066	     82.35671874	      0.00000000	      0.00000000	     89.96628933	      2.47167074	     18.31446487	     49.78025341	     76.49290581	      0.00000000	      0.00000000
      4.09000000	      3.15666657	     -5.56395069	      1.75780065	     -0.33245853	      0.88813867	     -1.06201927	     41.55233724	      3.57327340	     -3.63818896	      1.02237358	      0.01784379	    -10.75603867	      0.00000000	      0.00000000	     36.82349667	     -2.95653470	     -0.69590147	     74.88148630	      1.30692848	     24.34633683	      0.00000000	      0.00000000	    -18.46357919	      1.82756229	      5.57871900	     89.95352556	     -2.03533372	      8.81294063	     44.19423124	     82.37652220	      0.00000000	      0.00000000	     89.96619779	      2.45913402	     18.36179475	     49.74783704	     76.44912689	      0.00000000	      0.00000000
      4.09500000	      3.14236751	     -5.54455000	      1.74446045	     -0.33236383	      0.88964323	     -1.06215856	     41.48903991	      3.54617074	     -3.67029033	      1.02394604	      0.01787123	    -10.79821359	      0.00000000	      0.00000000	     36.67157532	     -2.98434128	     -0.81037104	     74.57779463	      1.30162807	     24.23058507	      0.00000000	      0.00000000	    -18.40411241	      1.79073183	      5.55840779	     89.95335359	     -2.08453833	      8.86586831	     44.13939254	     82.38826207	      0.00000000	      0.00000000	     89.96609958	      2.47500374	     18.41464731	     49.73286248	     76.41977625	      0.00000000	      0.00000000
      4.10000000	      3.34871929	     -5.42594394	      1.68826064	     -0.33205178	      0.89165893	     -1.06222889	     41.14746925	      3.48274243	     -3.73785610	      1.00050927	      0.01746218	    -10.88387483	      0.00000000	      0.00000000	     36.19809801	     -2.97013503	     -1.04617826	     74.17343896	      1.29457073	     24.01487348	      0.00000000	      0.00000000	    -18.58386054	      1.63730848	      5.58621230	     89.95338282	     -2.14030292	      9.00980191	     44.10991695	     82.43022887	      0.00000000	      0.00000000	     89.96612600	      2.47620459	     18.49140421	     49.68579867	     76.31892256	      0.00000000	      0.00000000
      4.10500000	      3.29281459	     -5.47001563	      1.72688998	     -0.33181757	      0.89296391	     -1.06236820	     41.12371609	      3.46911107	     -3.71801381	      1.00076351	      0.01746662	    -10.85548866	      0.00000000	      0.00000000	     36.11151474	     -3.02766007	     -1.05845922	     73.88769943	      1.28958363	     23.93974908	      0.00000000	      0.00000000	    -18.46216081	      1.68535604	      5.54220918	     89.95311121	     -2.17631107	      9.02101811	     44.07391089	     82.43221182	      0.00000000	      0.00000000	     89.96607743	      2.47158178	     18.49506973	     49.70405381	     76.29869332	      0.00000000	      0.00000000
      4.11000000	      3.28590071	     -5.47162384	      1.70001993	     -0.33153547	      0.89448261	     -1.06236026	     41.04806101	      3.47549304	     -3.76475033	      0.99736041	      0.01740722	    -10.86370747	      0.00000000	      0.00000000	     35.92099674	     -3.06216736	     -1.08396969	     73.54343328	      1.28357505	     23.80527272	      0.00000000	      0.00000000	    -18.41014638	      1.68090151	      5.55209548	     89.95293608	     -2.15552137	      9.04694606	     43.99272328	     82.43939437	      0.00000000	      0.00000000	     89.96598786	      2.46652384	     18.51630372	     49.69001834	     76.27368111	      0.00000000	      0.00000000
      4.11500000	      3.33817471	     -5.43406719	      1.73729414	     -0.33141934	      0.89610571	     -1.06259609	     40.91170212	      3.39831904	     -3.85040918	      1.00128757	      0.01747576	    -10.88791023	      0.00000000	      0.00000000	     35.68556308	     -3.02093246	     -1.15293114	     73.20167276	      1.27761021	     23.66216473	      0.00000000	      0.00000000	    -18.41107860	      1.65622573	      5.50871945	     89.95294382	     -2.18178855	      9.08504577	     43.91582500	     82.44311355	      0.00000000	      0.00000000	     89.96595428	      2.46715176	     18.55906892	     49.64082596	     76.24261994	      0.00000000	      0.00000000
      4.12000000	      3.34279881	     -5.46594873	      1.72503727	     -0.33118805	      0.89754077	     -1.06272446	     40.82771541	      3.40959108	     -3.87463260	      1.01457382	      0.01770765	    -10.88986186	      0.00000000	      0.00000000	     35.51512505	     -3.06875516	     -1.17812002	     72.90864720	      1.27249595	     23.52733752	      0.00000000	      0.00000000	    -18.36060875	      1.67249821	      5.50034952	     89.95282015	     -2.19969188	      9.10790322	     43.89267871	     82.44821071	      0.00000000	      0.00000000	     89.96588356	      2.48428409	     18.57937398	     49.63098079	     76.22258210	      0.00000000	      0.00000000
      4.12500000	      3.38670288	     -5.40928374	      1.72242904	     -0.33098536	      0.89916177	     -1.06284291	     40.69487605	      3.35441288	     -3.94395708	      1.01982081	      0.01779923	    -10.89991443	      0.00000000	      0.00000000	     35.23931538	     -2.98857963	     -1.17951768	     72.49580355	      1.26529047	     23.40680658	      0.00000000	      0.00000000	    -18.36141743	      1.62818468	      5.51498945	     89.95277731	     -2.21485857	      9.16949000	     43.84766393	     82.45619171	      0.00000000	      0.00000000	     89.96582662	      2.49713027	     18.62391310	     49.61221446	     76.19907281	      0.00000000	      0.00000000
      4.13000000	      3.56358031	     -5.32316046	      1.74424529	     -0.33053170	      0.90088767	     -1.06292474	     40.42532182	      3.27444170	     -4.06437659	      1.02669640	      0.01791923	    -10.87657260	      0.00000000	      0.00000000	     34.85882734	     -2.98343276	     -1.36030279	     72.18770462	      1.25991313	     23.08816402	      0.00000000	      0.00000000	    -18.46325716	      1.51129228	      5.44416151	     89.95277734	     -2.24648359	      9.26537019	     43.72967627	     82.48120969	      0.00000000	      0.00000000	     89.96584844	      2.49599948	     18.70055392	     49.48531988	     76.12825287	      0.00000000	      0.00000000
